<svg width="106" height="18" viewBox="0 0 106 18" fill="none" xmlns="http://www.w3.org/2000/svg">
<path d="M8.6482 9.8C9.46154 9.97333 10.1149 10.38 10.6082 11.02C11.1015 11.6467 11.3482 12.3667 11.3482 13.18C11.3482 14.3533 10.9349 15.2867 10.1082 15.98C9.29487 16.66 8.15487 17 6.6882 17H0.148203V2.96H6.4682C7.89487 2.96 9.0082 3.28667 9.8082 3.94C10.6215 4.59333 11.0282 5.48 11.0282 6.6C11.0282 7.42667 10.8082 8.11333 10.3682 8.66C9.94154 9.20667 9.3682 9.58667 8.6482 9.8ZM3.5682 8.64H5.8082C6.3682 8.64 6.79487 8.52 7.0882 8.28C7.39487 8.02667 7.5482 7.66 7.5482 7.18C7.5482 6.7 7.39487 6.33333 7.0882 6.08C6.79487 5.82667 6.3682 5.7 5.8082 5.7H3.5682V8.64ZM6.0882 14.24C6.66154 14.24 7.10154 14.1133 7.4082 13.86C7.7282 13.5933 7.8882 13.2133 7.8882 12.72C7.8882 12.2267 7.72154 11.84 7.3882 11.56C7.0682 11.28 6.62154 11.14 6.0482 11.14H3.5682V14.24H6.0882ZM15.0518 4.68C14.4518 4.68 13.9585 4.50667 13.5718 4.16C13.1985 3.8 13.0118 3.36 13.0118 2.84C13.0118 2.30667 13.1985 1.86667 13.5718 1.52C13.9585 1.16 14.4518 0.979999 15.0518 0.979999C15.6385 0.979999 16.1185 1.16 16.4918 1.52C16.8785 1.86667 17.0718 2.30667 17.0718 2.84C17.0718 3.36 16.8785 3.8 16.4918 4.16C16.1185 4.50667 15.6385 4.68 15.0518 4.68ZM16.7518 5.84V17H13.3318V5.84H16.7518ZM26.0502 17L22.6502 12.32V17H19.2302V2.2H22.6502V10.38L26.0302 5.84H30.2502L25.6102 11.44L30.2902 17H26.0502ZM42.1135 11.24C42.1135 11.56 42.0935 11.8933 42.0535 12.24H34.3135C34.3668 12.9333 34.5868 13.4667 34.9735 13.84C35.3735 14.2 35.8602 14.38 36.4335 14.38C37.2868 14.38 37.8802 14.02 38.2135 13.3H41.8535C41.6668 14.0333 41.3268 14.6933 40.8335 15.28C40.3535 15.8667 39.7468 16.3267 39.0135 16.66C38.2802 16.9933 37.4602 17.16 36.5535 17.16C35.4602 17.16 34.4868 16.9267 33.6335 16.46C32.7802 15.9933 32.1135 15.3267 31.6335 14.46C31.1535 13.5933 30.9135 12.58 30.9135 11.42C30.9135 10.26 31.1468 9.24667 31.6135 8.38C32.0935 7.51333 32.7602 6.84667 33.6135 6.38C34.4668 5.91333 35.4468 5.68 36.5535 5.68C37.6335 5.68 38.5935 5.90667 39.4335 6.36C40.2735 6.81333 40.9268 7.46 41.3935 8.3C41.8735 9.14 42.1135 10.12 42.1135 11.24ZM38.6135 10.34C38.6135 9.75333 38.4135 9.28667 38.0135 8.94C37.6135 8.59333 37.1135 8.42 36.5135 8.42C35.9402 8.42 35.4535 8.58667 35.0535 8.92C34.6668 9.25333 34.4268 9.72667 34.3335 10.34H38.6135ZM53.2377 7.4C52.9844 6.93333 52.6177 6.58 52.1377 6.34C51.6711 6.08667 51.1177 5.96 50.4777 5.96C49.3711 5.96 48.4844 6.32667 47.8177 7.06C47.1511 7.78 46.8177 8.74667 46.8177 9.96C46.8177 11.2533 47.1644 12.2667 47.8577 13C48.5644 13.72 49.5311 14.08 50.7577 14.08C51.5977 14.08 52.3044 13.8667 52.8777 13.44C53.4644 13.0133 53.8911 12.4 54.1577 11.6H49.8177V9.08H57.2577V12.26C57.0044 13.1133 56.5711 13.9067 55.9577 14.64C55.3577 15.3733 54.5911 15.9667 53.6577 16.42C52.7244 16.8733 51.6711 17.1 50.4977 17.1C49.1111 17.1 47.8711 16.8 46.7777 16.2C45.6977 15.5867 44.8511 14.74 44.2377 13.66C43.6377 12.58 43.3377 11.3467 43.3377 9.96C43.3377 8.57333 43.6377 7.34 44.2377 6.26C44.8511 5.16667 45.6977 4.32 46.7777 3.72C47.8577 3.10667 49.0911 2.8 50.4777 2.8C52.1577 2.8 53.5711 3.20667 54.7177 4.02C55.8777 4.83333 56.6444 5.96 57.0177 7.4H53.2377ZM70.1721 5.84V17H66.7521V15.48C66.4054 15.9733 65.9321 16.3733 65.3321 16.68C64.7454 16.9733 64.0921 17.12 63.3721 17.12C62.5188 17.12 61.7654 16.9333 61.1121 16.56C60.4588 16.1733 59.9521 15.62 59.5921 14.9C59.2321 14.18 59.0521 13.3333 59.0521 12.36V5.84H62.4521V11.9C62.4521 12.6467 62.6454 13.2267 63.0321 13.64C63.4188 14.0533 63.9388 14.26 64.5921 14.26C65.2588 14.26 65.7854 14.0533 66.1721 13.64C66.5588 13.2267 66.7521 12.6467 66.7521 11.9V5.84H70.1721ZM71.9487 11.4C71.9487 10.2533 72.162 9.24667 72.5887 8.38C73.0287 7.51333 73.622 6.84667 74.3687 6.38C75.1153 5.91333 75.9487 5.68 76.8687 5.68C77.6553 5.68 78.342 5.84 78.9287 6.16C79.5287 6.48 79.9887 6.9 80.3087 7.42V5.84H83.7287V17H80.3087V15.42C79.9753 15.94 79.5087 16.36 78.9087 16.68C78.322 17 77.6353 17.16 76.8487 17.16C75.942 17.16 75.1153 16.9267 74.3687 16.46C73.622 15.98 73.0287 15.3067 72.5887 14.44C72.162 13.56 71.9487 12.5467 71.9487 11.4ZM80.3087 11.42C80.3087 10.5667 80.0687 9.89333 79.5887 9.4C79.122 8.90667 78.5487 8.66 77.8687 8.66C77.1887 8.66 76.6087 8.90667 76.1287 9.4C75.662 9.88 75.4287 10.5467 75.4287 11.4C75.4287 12.2533 75.662 12.9333 76.1287 13.44C76.6087 13.9333 77.1887 14.18 77.8687 14.18C78.5487 14.18 79.122 13.9333 79.5887 13.44C80.0687 12.9467 80.3087 12.2733 80.3087 11.42ZM89.6229 7.7C90.0229 7.08667 90.5229 6.60667 91.1229 6.26C91.7229 5.9 92.3896 5.72 93.1229 5.72V9.34H92.1829C91.3296 9.34 90.6896 9.52667 90.2629 9.9C89.8362 10.26 89.6229 10.9 89.6229 11.82V17H86.2029V5.84H89.6229V7.7ZM94.0776 11.4C94.0776 10.2533 94.2909 9.24667 94.7176 8.38C95.1576 7.51333 95.7509 6.84667 96.4976 6.38C97.2442 5.91333 98.0776 5.68 98.9976 5.68C99.7309 5.68 100.398 5.83333 100.998 6.14C101.611 6.44667 102.091 6.86 102.438 7.38V2.2H105.858V17H102.438V15.4C102.118 15.9333 101.658 16.36 101.058 16.68C100.471 17 99.7842 17.16 98.9976 17.16C98.0776 17.16 97.2442 16.9267 96.4976 16.46C95.7509 15.98 95.1576 15.3067 94.7176 14.44C94.2909 13.56 94.0776 12.5467 94.0776 11.4ZM102.438 11.42C102.438 10.5667 102.198 9.89333 101.718 9.4C101.251 8.90667 100.678 8.66 99.9976 8.66C99.3176 8.66 98.7376 8.90667 98.2576 9.4C97.7909 9.88 97.5576 10.5467 97.5576 11.4C97.5576 12.2533 97.7909 12.9333 98.2576 13.44C98.7376 13.9333 99.3176 14.18 99.9976 14.18C100.678 14.18 101.251 13.9333 101.718 13.44C102.198 12.9467 102.438 12.2733 102.438 11.42Z" fill="white"/>
</svg>
